<?xml version="1.0" encoding="utf-8" standalone="no"?>
<!DOCTYPE svg PUBLIC "-//W3C//DTD SVG 1.1//EN"
  "http://www.w3.org/Graphics/SVG/1.1/DTD/svg11.dtd">
<!-- Created with matplotlib (https://matplotlib.org/) -->
<svg height="285.68pt" version="1.1" viewBox="0 0 560.49 285.68" width="560.49pt" xmlns="http://www.w3.org/2000/svg" xmlns:xlink="http://www.w3.org/1999/xlink">
 <defs>
  <style type="text/css">
*{stroke-linecap:butt;stroke-linejoin:round;}
  </style>
 </defs>
 <g id="figure_1">
  <g id="patch_1">
   <path d="M 0 285.68 
L 560.49 285.68 
L 560.49 0 
L 0 0 
z
" style="fill:#ffffff;"/>
  </g>
  <g id="axes_1"/>
  <g id="legend_1">
   <g id="patch_2">
    <path d="M 13.124687 277.265 
L 551.365313 277.265 
Q 555.365313 277.265 555.365313 273.265 
L 555.365313 16.415 
Q 555.365313 12.415 551.365313 12.415 
L 13.124687 12.415 
Q 9.124687 12.415 9.124687 16.415 
L 9.124687 273.265 
Q 9.124687 277.265 13.124687 277.265 
z
" style="fill:#4c4c4c;opacity:0.5;stroke:#4c4c4c;stroke-linejoin:miter;"/>
   </g>
   <g id="patch_3">
    <path d="M 11.124687 275.265 
L 549.365313 275.265 
Q 553.365313 275.265 553.365313 271.265 
L 553.365313 14.415 
Q 553.365313 10.415 549.365313 10.415 
L 11.124687 10.415 
Q 7.124687 10.415 7.124687 14.415 
L 7.124687 271.265 
Q 7.124687 275.265 11.124687 275.265 
z
" style="fill:#ffffff;stroke:#cccccc;stroke-linejoin:miter;"/>
   </g>
   <g id="patch_4">
    <path d="M 27.124687 45.611875 
L 67.124687 45.611875 
L 67.124687 31.611875 
L 27.124687 31.611875 
z
" style="fill:#808080;stroke:#808080;stroke-linejoin:miter;"/>
   </g>
   <g id="text_1">
    <!-- Paper and cardboard wastes -->
    <defs>
     <path d="M 19.671875 64.796875 
L 19.671875 37.40625 
L 32.078125 37.40625 
Q 38.96875 37.40625 42.71875 40.96875 
Q 46.484375 44.53125 46.484375 51.125 
Q 46.484375 57.671875 42.71875 61.234375 
Q 38.96875 64.796875 32.078125 64.796875 
z
M 9.8125 72.90625 
L 32.078125 72.90625 
Q 44.34375 72.90625 50.609375 67.359375 
Q 56.890625 61.8125 56.890625 51.125 
Q 56.890625 40.328125 50.609375 34.8125 
Q 44.34375 29.296875 32.078125 29.296875 
L 19.671875 29.296875 
L 19.671875 0 
L 9.8125 0 
z
" id="DejaVuSans-80"/>
     <path d="M 34.28125 27.484375 
Q 23.390625 27.484375 19.1875 25 
Q 14.984375 22.515625 14.984375 16.5 
Q 14.984375 11.71875 18.140625 8.90625 
Q 21.296875 6.109375 26.703125 6.109375 
Q 34.1875 6.109375 38.703125 11.40625 
Q 43.21875 16.703125 43.21875 25.484375 
L 43.21875 27.484375 
z
M 52.203125 31.203125 
L 52.203125 0 
L 43.21875 0 
L 43.21875 8.296875 
Q 40.140625 3.328125 35.546875 0.953125 
Q 30.953125 -1.421875 24.3125 -1.421875 
Q 15.921875 -1.421875 10.953125 3.296875 
Q 6 8.015625 6 15.921875 
Q 6 25.140625 12.171875 29.828125 
Q 18.359375 34.515625 30.609375 34.515625 
L 43.21875 34.515625 
L 43.21875 35.40625 
Q 43.21875 41.609375 39.140625 45 
Q 35.0625 48.390625 27.6875 48.390625 
Q 23 48.390625 18.546875 47.265625 
Q 14.109375 46.140625 10.015625 43.890625 
L 10.015625 52.203125 
Q 14.9375 54.109375 19.578125 55.046875 
Q 24.21875 56 28.609375 56 
Q 40.484375 56 46.34375 49.84375 
Q 52.203125 43.703125 52.203125 31.203125 
z
" id="DejaVuSans-97"/>
     <path d="M 18.109375 8.203125 
L 18.109375 -20.796875 
L 9.078125 -20.796875 
L 9.078125 54.6875 
L 18.109375 54.6875 
L 18.109375 46.390625 
Q 20.953125 51.265625 25.265625 53.625 
Q 29.59375 56 35.59375 56 
Q 45.5625 56 51.78125 48.09375 
Q 58.015625 40.1875 58.015625 27.296875 
Q 58.015625 14.40625 51.78125 6.484375 
Q 45.5625 -1.421875 35.59375 -1.421875 
Q 29.59375 -1.421875 25.265625 0.953125 
Q 20.953125 3.328125 18.109375 8.203125 
z
M 48.6875 27.296875 
Q 48.6875 37.203125 44.609375 42.84375 
Q 40.53125 48.484375 33.40625 48.484375 
Q 26.265625 48.484375 22.1875 42.84375 
Q 18.109375 37.203125 18.109375 27.296875 
Q 18.109375 17.390625 22.1875 11.75 
Q 26.265625 6.109375 33.40625 6.109375 
Q 40.53125 6.109375 44.609375 11.75 
Q 48.6875 17.390625 48.6875 27.296875 
z
" id="DejaVuSans-112"/>
     <path d="M 56.203125 29.59375 
L 56.203125 25.203125 
L 14.890625 25.203125 
Q 15.484375 15.921875 20.484375 11.0625 
Q 25.484375 6.203125 34.421875 6.203125 
Q 39.59375 6.203125 44.453125 7.46875 
Q 49.3125 8.734375 54.109375 11.28125 
L 54.109375 2.78125 
Q 49.265625 0.734375 44.1875 -0.34375 
Q 39.109375 -1.421875 33.890625 -1.421875 
Q 20.796875 -1.421875 13.15625 6.1875 
Q 5.515625 13.8125 5.515625 26.8125 
Q 5.515625 40.234375 12.765625 48.109375 
Q 20.015625 56 32.328125 56 
Q 43.359375 56 49.78125 48.890625 
Q 56.203125 41.796875 56.203125 29.59375 
z
M 47.21875 32.234375 
Q 47.125 39.59375 43.09375 43.984375 
Q 39.0625 48.390625 32.421875 48.390625 
Q 24.90625 48.390625 20.390625 44.140625 
Q 15.875 39.890625 15.1875 32.171875 
z
" id="DejaVuSans-101"/>
     <path d="M 41.109375 46.296875 
Q 39.59375 47.171875 37.8125 47.578125 
Q 36.03125 48 33.890625 48 
Q 26.265625 48 22.1875 43.046875 
Q 18.109375 38.09375 18.109375 28.8125 
L 18.109375 0 
L 9.078125 0 
L 9.078125 54.6875 
L 18.109375 54.6875 
L 18.109375 46.1875 
Q 20.953125 51.171875 25.484375 53.578125 
Q 30.03125 56 36.53125 56 
Q 37.453125 56 38.578125 55.875 
Q 39.703125 55.765625 41.0625 55.515625 
z
" id="DejaVuSans-114"/>
     <path id="DejaVuSans-32"/>
     <path d="M 54.890625 33.015625 
L 54.890625 0 
L 45.90625 0 
L 45.90625 32.71875 
Q 45.90625 40.484375 42.875 44.328125 
Q 39.84375 48.1875 33.796875 48.1875 
Q 26.515625 48.1875 22.3125 43.546875 
Q 18.109375 38.921875 18.109375 30.90625 
L 18.109375 0 
L 9.078125 0 
L 9.078125 54.6875 
L 18.109375 54.6875 
L 18.109375 46.1875 
Q 21.34375 51.125 25.703125 53.5625 
Q 30.078125 56 35.796875 56 
Q 45.21875 56 50.046875 50.171875 
Q 54.890625 44.34375 54.890625 33.015625 
z
" id="DejaVuSans-110"/>
     <path d="M 45.40625 46.390625 
L 45.40625 75.984375 
L 54.390625 75.984375 
L 54.390625 0 
L 45.40625 0 
L 45.40625 8.203125 
Q 42.578125 3.328125 38.25 0.953125 
Q 33.9375 -1.421875 27.875 -1.421875 
Q 17.96875 -1.421875 11.734375 6.484375 
Q 5.515625 14.40625 5.515625 27.296875 
Q 5.515625 40.1875 11.734375 48.09375 
Q 17.96875 56 27.875 56 
Q 33.9375 56 38.25 53.625 
Q 42.578125 51.265625 45.40625 46.390625 
z
M 14.796875 27.296875 
Q 14.796875 17.390625 18.875 11.75 
Q 22.953125 6.109375 30.078125 6.109375 
Q 37.203125 6.109375 41.296875 11.75 
Q 45.40625 17.390625 45.40625 27.296875 
Q 45.40625 37.203125 41.296875 42.84375 
Q 37.203125 48.484375 30.078125 48.484375 
Q 22.953125 48.484375 18.875 42.84375 
Q 14.796875 37.203125 14.796875 27.296875 
z
" id="DejaVuSans-100"/>
     <path d="M 48.78125 52.59375 
L 48.78125 44.1875 
Q 44.96875 46.296875 41.140625 47.34375 
Q 37.3125 48.390625 33.40625 48.390625 
Q 24.65625 48.390625 19.8125 42.84375 
Q 14.984375 37.3125 14.984375 27.296875 
Q 14.984375 17.28125 19.8125 11.734375 
Q 24.65625 6.203125 33.40625 6.203125 
Q 37.3125 6.203125 41.140625 7.25 
Q 44.96875 8.296875 48.78125 10.40625 
L 48.78125 2.09375 
Q 45.015625 0.34375 40.984375 -0.53125 
Q 36.96875 -1.421875 32.421875 -1.421875 
Q 20.0625 -1.421875 12.78125 6.34375 
Q 5.515625 14.109375 5.515625 27.296875 
Q 5.515625 40.671875 12.859375 48.328125 
Q 20.21875 56 33.015625 56 
Q 37.15625 56 41.109375 55.140625 
Q 45.0625 54.296875 48.78125 52.59375 
z
" id="DejaVuSans-99"/>
     <path d="M 48.6875 27.296875 
Q 48.6875 37.203125 44.609375 42.84375 
Q 40.53125 48.484375 33.40625 48.484375 
Q 26.265625 48.484375 22.1875 42.84375 
Q 18.109375 37.203125 18.109375 27.296875 
Q 18.109375 17.390625 22.1875 11.75 
Q 26.265625 6.109375 33.40625 6.109375 
Q 40.53125 6.109375 44.609375 11.75 
Q 48.6875 17.390625 48.6875 27.296875 
z
M 18.109375 46.390625 
Q 20.953125 51.265625 25.265625 53.625 
Q 29.59375 56 35.59375 56 
Q 45.5625 56 51.78125 48.09375 
Q 58.015625 40.1875 58.015625 27.296875 
Q 58.015625 14.40625 51.78125 6.484375 
Q 45.5625 -1.421875 35.59375 -1.421875 
Q 29.59375 -1.421875 25.265625 0.953125 
Q 20.953125 3.328125 18.109375 8.203125 
L 18.109375 0 
L 9.078125 0 
L 9.078125 75.984375 
L 18.109375 75.984375 
z
" id="DejaVuSans-98"/>
     <path d="M 30.609375 48.390625 
Q 23.390625 48.390625 19.1875 42.75 
Q 14.984375 37.109375 14.984375 27.296875 
Q 14.984375 17.484375 19.15625 11.84375 
Q 23.34375 6.203125 30.609375 6.203125 
Q 37.796875 6.203125 41.984375 11.859375 
Q 46.1875 17.53125 46.1875 27.296875 
Q 46.1875 37.015625 41.984375 42.703125 
Q 37.796875 48.390625 30.609375 48.390625 
z
M 30.609375 56 
Q 42.328125 56 49.015625 48.375 
Q 55.71875 40.765625 55.71875 27.296875 
Q 55.71875 13.875 49.015625 6.21875 
Q 42.328125 -1.421875 30.609375 -1.421875 
Q 18.84375 -1.421875 12.171875 6.21875 
Q 5.515625 13.875 5.515625 27.296875 
Q 5.515625 40.765625 12.171875 48.375 
Q 18.84375 56 30.609375 56 
z
" id="DejaVuSans-111"/>
     <path d="M 4.203125 54.6875 
L 13.1875 54.6875 
L 24.421875 12.015625 
L 35.59375 54.6875 
L 46.1875 54.6875 
L 57.421875 12.015625 
L 68.609375 54.6875 
L 77.59375 54.6875 
L 63.28125 0 
L 52.6875 0 
L 40.921875 44.828125 
L 29.109375 0 
L 18.5 0 
z
" id="DejaVuSans-119"/>
     <path d="M 44.28125 53.078125 
L 44.28125 44.578125 
Q 40.484375 46.53125 36.375 47.5 
Q 32.28125 48.484375 27.875 48.484375 
Q 21.1875 48.484375 17.84375 46.4375 
Q 14.5 44.390625 14.5 40.28125 
Q 14.5 37.15625 16.890625 35.375 
Q 19.28125 33.59375 26.515625 31.984375 
L 29.59375 31.296875 
Q 39.15625 29.25 43.1875 25.515625 
Q 47.21875 21.78125 47.21875 15.09375 
Q 47.21875 7.46875 41.1875 3.015625 
Q 35.15625 -1.421875 24.609375 -1.421875 
Q 20.21875 -1.421875 15.453125 -0.5625 
Q 10.6875 0.296875 5.421875 2 
L 5.421875 11.28125 
Q 10.40625 8.6875 15.234375 7.390625 
Q 20.0625 6.109375 24.8125 6.109375 
Q 31.15625 6.109375 34.5625 8.28125 
Q 37.984375 10.453125 37.984375 14.40625 
Q 37.984375 18.0625 35.515625 20.015625 
Q 33.0625 21.96875 24.703125 23.78125 
L 21.578125 24.515625 
Q 13.234375 26.265625 9.515625 29.90625 
Q 5.8125 33.546875 5.8125 39.890625 
Q 5.8125 47.609375 11.28125 51.796875 
Q 16.75 56 26.8125 56 
Q 31.78125 56 36.171875 55.265625 
Q 40.578125 54.546875 44.28125 53.078125 
z
" id="DejaVuSans-115"/>
     <path d="M 18.3125 70.21875 
L 18.3125 54.6875 
L 36.8125 54.6875 
L 36.8125 47.703125 
L 18.3125 47.703125 
L 18.3125 18.015625 
Q 18.3125 11.328125 20.140625 9.421875 
Q 21.96875 7.515625 27.59375 7.515625 
L 36.8125 7.515625 
L 36.8125 0 
L 27.59375 0 
Q 17.1875 0 13.234375 3.875 
Q 9.28125 7.765625 9.28125 18.015625 
L 9.28125 47.703125 
L 2.6875 47.703125 
L 2.6875 54.6875 
L 9.28125 54.6875 
L 9.28125 70.21875 
z
" id="DejaVuSans-116"/>
    </defs>
    <g transform="translate(83.124687 45.611875)scale(0.2 -0.2)">
     <use xlink:href="#DejaVuSans-80"/>
     <use x="55.802734" xlink:href="#DejaVuSans-97"/>
     <use x="117.082031" xlink:href="#DejaVuSans-112"/>
     <use x="180.558594" xlink:href="#DejaVuSans-101"/>
     <use x="242.082031" xlink:href="#DejaVuSans-114"/>
     <use x="283.195312" xlink:href="#DejaVuSans-32"/>
     <use x="314.982422" xlink:href="#DejaVuSans-97"/>
     <use x="376.261719" xlink:href="#DejaVuSans-110"/>
     <use x="439.640625" xlink:href="#DejaVuSans-100"/>
     <use x="503.117188" xlink:href="#DejaVuSans-32"/>
     <use x="534.904297" xlink:href="#DejaVuSans-99"/>
     <use x="589.884766" xlink:href="#DejaVuSans-97"/>
     <use x="651.164062" xlink:href="#DejaVuSans-114"/>
     <use x="690.527344" xlink:href="#DejaVuSans-100"/>
     <use x="754.003906" xlink:href="#DejaVuSans-98"/>
     <use x="817.480469" xlink:href="#DejaVuSans-111"/>
     <use x="878.662109" xlink:href="#DejaVuSans-97"/>
     <use x="939.941406" xlink:href="#DejaVuSans-114"/>
     <use x="979.304688" xlink:href="#DejaVuSans-100"/>
     <use x="1042.78125" xlink:href="#DejaVuSans-32"/>
     <use x="1074.568359" xlink:href="#DejaVuSans-119"/>
     <use x="1156.355469" xlink:href="#DejaVuSans-97"/>
     <use x="1217.634766" xlink:href="#DejaVuSans-115"/>
     <use x="1269.734375" xlink:href="#DejaVuSans-116"/>
     <use x="1308.943359" xlink:href="#DejaVuSans-101"/>
     <use x="1370.466797" xlink:href="#DejaVuSans-115"/>
    </g>
   </g>
   <g id="patch_5">
    <path d="M 27.124687 74.968125 
L 67.124687 74.968125 
L 67.124687 60.968125 
L 27.124687 60.968125 
z
" style="fill:#0000ff;stroke:#0000ff;stroke-linejoin:miter;"/>
   </g>
   <g id="text_2">
    <!-- Rubber wastes -->
    <defs>
     <path d="M 44.390625 34.1875 
Q 47.5625 33.109375 50.5625 29.59375 
Q 53.5625 26.078125 56.59375 19.921875 
L 66.609375 0 
L 56 0 
L 46.6875 18.703125 
Q 43.0625 26.03125 39.671875 28.421875 
Q 36.28125 30.8125 30.421875 30.8125 
L 19.671875 30.8125 
L 19.671875 0 
L 9.8125 0 
L 9.8125 72.90625 
L 32.078125 72.90625 
Q 44.578125 72.90625 50.734375 67.671875 
Q 56.890625 62.453125 56.890625 51.90625 
Q 56.890625 45.015625 53.6875 40.46875 
Q 50.484375 35.9375 44.390625 34.1875 
z
M 19.671875 64.796875 
L 19.671875 38.921875 
L 32.078125 38.921875 
Q 39.203125 38.921875 42.84375 42.21875 
Q 46.484375 45.515625 46.484375 51.90625 
Q 46.484375 58.296875 42.84375 61.546875 
Q 39.203125 64.796875 32.078125 64.796875 
z
" id="DejaVuSans-82"/>
     <path d="M 8.5 21.578125 
L 8.5 54.6875 
L 17.484375 54.6875 
L 17.484375 21.921875 
Q 17.484375 14.15625 20.5 10.265625 
Q 23.53125 6.390625 29.59375 6.390625 
Q 36.859375 6.390625 41.078125 11.03125 
Q 45.3125 15.671875 45.3125 23.6875 
L 45.3125 54.6875 
L 54.296875 54.6875 
L 54.296875 0 
L 45.3125 0 
L 45.3125 8.40625 
Q 42.046875 3.421875 37.71875 1 
Q 33.40625 -1.421875 27.6875 -1.421875 
Q 18.265625 -1.421875 13.375 4.4375 
Q 8.5 10.296875 8.5 21.578125 
z
M 31.109375 56 
z
" id="DejaVuSans-117"/>
    </defs>
    <g transform="translate(83.124687 74.968125)scale(0.2 -0.2)">
     <use xlink:href="#DejaVuSans-82"/>
     <use x="64.982422" xlink:href="#DejaVuSans-117"/>
     <use x="128.361328" xlink:href="#DejaVuSans-98"/>
     <use x="191.837891" xlink:href="#DejaVuSans-98"/>
     <use x="255.314453" xlink:href="#DejaVuSans-101"/>
     <use x="316.837891" xlink:href="#DejaVuSans-114"/>
     <use x="357.951172" xlink:href="#DejaVuSans-32"/>
     <use x="389.738281" xlink:href="#DejaVuSans-119"/>
     <use x="471.525391" xlink:href="#DejaVuSans-97"/>
     <use x="532.804688" xlink:href="#DejaVuSans-115"/>
     <use x="584.904297" xlink:href="#DejaVuSans-116"/>
     <use x="624.113281" xlink:href="#DejaVuSans-101"/>
     <use x="685.636719" xlink:href="#DejaVuSans-115"/>
    </g>
   </g>
   <g id="patch_6">
    <path d="M 27.124687 104.324375 
L 67.124687 104.324375 
L 67.124687 90.324375 
L 27.124687 90.324375 
z
" style="fill:#a52a2a;stroke:#a52a2a;stroke-linejoin:miter;"/>
   </g>
   <g id="text_3">
    <!-- Wood wastes -->
    <defs>
     <path d="M 3.328125 72.90625 
L 13.28125 72.90625 
L 28.609375 11.28125 
L 43.890625 72.90625 
L 54.984375 72.90625 
L 70.3125 11.28125 
L 85.59375 72.90625 
L 95.609375 72.90625 
L 77.296875 0 
L 64.890625 0 
L 49.515625 63.28125 
L 33.984375 0 
L 21.578125 0 
z
" id="DejaVuSans-87"/>
    </defs>
    <g transform="translate(83.124687 104.324375)scale(0.2 -0.2)">
     <use xlink:href="#DejaVuSans-87"/>
     <use x="93.001953" xlink:href="#DejaVuSans-111"/>
     <use x="154.183594" xlink:href="#DejaVuSans-111"/>
     <use x="215.365234" xlink:href="#DejaVuSans-100"/>
     <use x="278.841797" xlink:href="#DejaVuSans-32"/>
     <use x="310.628906" xlink:href="#DejaVuSans-119"/>
     <use x="392.416016" xlink:href="#DejaVuSans-97"/>
     <use x="453.695312" xlink:href="#DejaVuSans-115"/>
     <use x="505.794922" xlink:href="#DejaVuSans-116"/>
     <use x="545.003906" xlink:href="#DejaVuSans-101"/>
     <use x="606.527344" xlink:href="#DejaVuSans-115"/>
    </g>
   </g>
   <g id="patch_7">
    <path d="M 27.124687 133.680625 
L 67.124687 133.680625 
L 67.124687 119.680625 
L 27.124687 119.680625 
z
" style="fill:#00ffff;stroke:#00ffff;stroke-linejoin:miter;"/>
   </g>
   <g id="text_4">
    <!-- Textile wastes -->
    <defs>
     <path d="M -0.296875 72.90625 
L 61.375 72.90625 
L 61.375 64.59375 
L 35.5 64.59375 
L 35.5 0 
L 25.59375 0 
L 25.59375 64.59375 
L -0.296875 64.59375 
z
" id="DejaVuSans-84"/>
     <path d="M 54.890625 54.6875 
L 35.109375 28.078125 
L 55.90625 0 
L 45.3125 0 
L 29.390625 21.484375 
L 13.484375 0 
L 2.875 0 
L 24.125 28.609375 
L 4.6875 54.6875 
L 15.28125 54.6875 
L 29.78125 35.203125 
L 44.28125 54.6875 
z
" id="DejaVuSans-120"/>
     <path d="M 9.421875 54.6875 
L 18.40625 54.6875 
L 18.40625 0 
L 9.421875 0 
z
M 9.421875 75.984375 
L 18.40625 75.984375 
L 18.40625 64.59375 
L 9.421875 64.59375 
z
" id="DejaVuSans-105"/>
     <path d="M 9.421875 75.984375 
L 18.40625 75.984375 
L 18.40625 0 
L 9.421875 0 
z
" id="DejaVuSans-108"/>
    </defs>
    <g transform="translate(83.124687 133.680625)scale(0.2 -0.2)">
     <use xlink:href="#DejaVuSans-84"/>
     <use x="44.083984" xlink:href="#DejaVuSans-101"/>
     <use x="103.857422" xlink:href="#DejaVuSans-120"/>
     <use x="163.037109" xlink:href="#DejaVuSans-116"/>
     <use x="202.246094" xlink:href="#DejaVuSans-105"/>
     <use x="230.029297" xlink:href="#DejaVuSans-108"/>
     <use x="257.8125" xlink:href="#DejaVuSans-101"/>
     <use x="319.335938" xlink:href="#DejaVuSans-32"/>
     <use x="351.123047" xlink:href="#DejaVuSans-119"/>
     <use x="432.910156" xlink:href="#DejaVuSans-97"/>
     <use x="494.189453" xlink:href="#DejaVuSans-115"/>
     <use x="546.289062" xlink:href="#DejaVuSans-116"/>
     <use x="585.498047" xlink:href="#DejaVuSans-101"/>
     <use x="647.021484" xlink:href="#DejaVuSans-115"/>
    </g>
   </g>
   <g id="patch_8">
    <path d="M 27.124687 163.036875 
L 67.124687 163.036875 
L 67.124687 149.036875 
L 27.124687 149.036875 
z
" style="fill:#ffc0cb;stroke:#ffc0cb;stroke-linejoin:miter;"/>
   </g>
   <g id="text_5">
    <!-- Animal and mixed food waste -->
    <defs>
     <path d="M 34.1875 63.1875 
L 20.796875 26.90625 
L 47.609375 26.90625 
z
M 28.609375 72.90625 
L 39.796875 72.90625 
L 67.578125 0 
L 57.328125 0 
L 50.6875 18.703125 
L 17.828125 18.703125 
L 11.1875 0 
L 0.78125 0 
z
" id="DejaVuSans-65"/>
     <path d="M 52 44.1875 
Q 55.375 50.25 60.0625 53.125 
Q 64.75 56 71.09375 56 
Q 79.640625 56 84.28125 50.015625 
Q 88.921875 44.046875 88.921875 33.015625 
L 88.921875 0 
L 79.890625 0 
L 79.890625 32.71875 
Q 79.890625 40.578125 77.09375 44.375 
Q 74.3125 48.1875 68.609375 48.1875 
Q 61.625 48.1875 57.5625 43.546875 
Q 53.515625 38.921875 53.515625 30.90625 
L 53.515625 0 
L 44.484375 0 
L 44.484375 32.71875 
Q 44.484375 40.625 41.703125 44.40625 
Q 38.921875 48.1875 33.109375 48.1875 
Q 26.21875 48.1875 22.15625 43.53125 
Q 18.109375 38.875 18.109375 30.90625 
L 18.109375 0 
L 9.078125 0 
L 9.078125 54.6875 
L 18.109375 54.6875 
L 18.109375 46.1875 
Q 21.1875 51.21875 25.484375 53.609375 
Q 29.78125 56 35.6875 56 
Q 41.65625 56 45.828125 52.96875 
Q 50 49.953125 52 44.1875 
z
" id="DejaVuSans-109"/>
     <path d="M 37.109375 75.984375 
L 37.109375 68.5 
L 28.515625 68.5 
Q 23.6875 68.5 21.796875 66.546875 
Q 19.921875 64.59375 19.921875 59.515625 
L 19.921875 54.6875 
L 34.71875 54.6875 
L 34.71875 47.703125 
L 19.921875 47.703125 
L 19.921875 0 
L 10.890625 0 
L 10.890625 47.703125 
L 2.296875 47.703125 
L 2.296875 54.6875 
L 10.890625 54.6875 
L 10.890625 58.5 
Q 10.890625 67.625 15.140625 71.796875 
Q 19.390625 75.984375 28.609375 75.984375 
z
" id="DejaVuSans-102"/>
    </defs>
    <g transform="translate(83.124687 163.036875)scale(0.2 -0.2)">
     <use xlink:href="#DejaVuSans-65"/>
     <use x="68.408203" xlink:href="#DejaVuSans-110"/>
     <use x="131.787109" xlink:href="#DejaVuSans-105"/>
     <use x="159.570312" xlink:href="#DejaVuSans-109"/>
     <use x="256.982422" xlink:href="#DejaVuSans-97"/>
     <use x="318.261719" xlink:href="#DejaVuSans-108"/>
     <use x="346.044922" xlink:href="#DejaVuSans-32"/>
     <use x="377.832031" xlink:href="#DejaVuSans-97"/>
     <use x="439.111328" xlink:href="#DejaVuSans-110"/>
     <use x="502.490234" xlink:href="#DejaVuSans-100"/>
     <use x="565.966797" xlink:href="#DejaVuSans-32"/>
     <use x="597.753906" xlink:href="#DejaVuSans-109"/>
     <use x="695.166016" xlink:href="#DejaVuSans-105"/>
     <use x="722.949219" xlink:href="#DejaVuSans-120"/>
     <use x="779.003906" xlink:href="#DejaVuSans-101"/>
     <use x="840.527344" xlink:href="#DejaVuSans-100"/>
     <use x="904.003906" xlink:href="#DejaVuSans-32"/>
     <use x="935.791016" xlink:href="#DejaVuSans-102"/>
     <use x="970.996094" xlink:href="#DejaVuSans-111"/>
     <use x="1032.177734" xlink:href="#DejaVuSans-111"/>
     <use x="1093.359375" xlink:href="#DejaVuSans-100"/>
     <use x="1156.835938" xlink:href="#DejaVuSans-32"/>
     <use x="1188.623047" xlink:href="#DejaVuSans-119"/>
     <use x="1270.410156" xlink:href="#DejaVuSans-97"/>
     <use x="1331.689453" xlink:href="#DejaVuSans-115"/>
     <use x="1383.789062" xlink:href="#DejaVuSans-116"/>
     <use x="1422.998047" xlink:href="#DejaVuSans-101"/>
    </g>
   </g>
   <g id="patch_9">
    <path d="M 27.124687 192.393125 
L 67.124687 192.393125 
L 67.124687 178.393125 
L 27.124687 178.393125 
z
" style="fill:#008000;stroke:#008000;stroke-linejoin:miter;"/>
   </g>
   <g id="text_6">
    <!-- Vegetal wastes -->
    <defs>
     <path d="M 28.609375 0 
L 0.78125 72.90625 
L 11.078125 72.90625 
L 34.1875 11.53125 
L 57.328125 72.90625 
L 67.578125 72.90625 
L 39.796875 0 
z
" id="DejaVuSans-86"/>
     <path d="M 45.40625 27.984375 
Q 45.40625 37.75 41.375 43.109375 
Q 37.359375 48.484375 30.078125 48.484375 
Q 22.859375 48.484375 18.828125 43.109375 
Q 14.796875 37.75 14.796875 27.984375 
Q 14.796875 18.265625 18.828125 12.890625 
Q 22.859375 7.515625 30.078125 7.515625 
Q 37.359375 7.515625 41.375 12.890625 
Q 45.40625 18.265625 45.40625 27.984375 
z
M 54.390625 6.78125 
Q 54.390625 -7.171875 48.1875 -13.984375 
Q 42 -20.796875 29.203125 -20.796875 
Q 24.46875 -20.796875 20.265625 -20.09375 
Q 16.0625 -19.390625 12.109375 -17.921875 
L 12.109375 -9.1875 
Q 16.0625 -11.328125 19.921875 -12.34375 
Q 23.78125 -13.375 27.78125 -13.375 
Q 36.625 -13.375 41.015625 -8.765625 
Q 45.40625 -4.15625 45.40625 5.171875 
L 45.40625 9.625 
Q 42.625 4.78125 38.28125 2.390625 
Q 33.9375 0 27.875 0 
Q 17.828125 0 11.671875 7.65625 
Q 5.515625 15.328125 5.515625 27.984375 
Q 5.515625 40.671875 11.671875 48.328125 
Q 17.828125 56 27.875 56 
Q 33.9375 56 38.28125 53.609375 
Q 42.625 51.21875 45.40625 46.390625 
L 45.40625 54.6875 
L 54.390625 54.6875 
z
" id="DejaVuSans-103"/>
    </defs>
    <g transform="translate(83.124687 192.393125)scale(0.2 -0.2)">
     <use xlink:href="#DejaVuSans-86"/>
     <use x="60.658203" xlink:href="#DejaVuSans-101"/>
     <use x="122.181641" xlink:href="#DejaVuSans-103"/>
     <use x="185.658203" xlink:href="#DejaVuSans-101"/>
     <use x="247.181641" xlink:href="#DejaVuSans-116"/>
     <use x="286.390625" xlink:href="#DejaVuSans-97"/>
     <use x="347.669922" xlink:href="#DejaVuSans-108"/>
     <use x="375.453125" xlink:href="#DejaVuSans-32"/>
     <use x="407.240234" xlink:href="#DejaVuSans-119"/>
     <use x="489.027344" xlink:href="#DejaVuSans-97"/>
     <use x="550.306641" xlink:href="#DejaVuSans-115"/>
     <use x="602.40625" xlink:href="#DejaVuSans-116"/>
     <use x="641.615234" xlink:href="#DejaVuSans-101"/>
     <use x="703.138672" xlink:href="#DejaVuSans-115"/>
    </g>
   </g>
   <g id="patch_10">
    <path d="M 27.124687 221.749375 
L 67.124687 221.749375 
L 67.124687 207.749375 
L 27.124687 207.749375 
z
" style="fill:#ffff00;stroke:#ffff00;stroke-linejoin:miter;"/>
   </g>
   <g id="text_7">
    <!-- Animal feces, urine and manure -->
    <defs>
     <path d="M 11.71875 12.40625 
L 22.015625 12.40625 
L 22.015625 4 
L 14.015625 -11.625 
L 7.71875 -11.625 
L 11.71875 4 
z
" id="DejaVuSans-44"/>
    </defs>
    <g transform="translate(83.124687 221.749375)scale(0.2 -0.2)">
     <use xlink:href="#DejaVuSans-65"/>
     <use x="68.408203" xlink:href="#DejaVuSans-110"/>
     <use x="131.787109" xlink:href="#DejaVuSans-105"/>
     <use x="159.570312" xlink:href="#DejaVuSans-109"/>
     <use x="256.982422" xlink:href="#DejaVuSans-97"/>
     <use x="318.261719" xlink:href="#DejaVuSans-108"/>
     <use x="346.044922" xlink:href="#DejaVuSans-32"/>
     <use x="377.832031" xlink:href="#DejaVuSans-102"/>
     <use x="413.037109" xlink:href="#DejaVuSans-101"/>
     <use x="474.560547" xlink:href="#DejaVuSans-99"/>
     <use x="529.541016" xlink:href="#DejaVuSans-101"/>
     <use x="591.064453" xlink:href="#DejaVuSans-115"/>
     <use x="643.164062" xlink:href="#DejaVuSans-44"/>
     <use x="674.951172" xlink:href="#DejaVuSans-32"/>
     <use x="706.738281" xlink:href="#DejaVuSans-117"/>
     <use x="770.117188" xlink:href="#DejaVuSans-114"/>
     <use x="811.230469" xlink:href="#DejaVuSans-105"/>
     <use x="839.013672" xlink:href="#DejaVuSans-110"/>
     <use x="902.392578" xlink:href="#DejaVuSans-101"/>
     <use x="963.916016" xlink:href="#DejaVuSans-32"/>
     <use x="995.703125" xlink:href="#DejaVuSans-97"/>
     <use x="1056.982422" xlink:href="#DejaVuSans-110"/>
     <use x="1120.361328" xlink:href="#DejaVuSans-100"/>
     <use x="1183.837891" xlink:href="#DejaVuSans-32"/>
     <use x="1215.625" xlink:href="#DejaVuSans-109"/>
     <use x="1313.037109" xlink:href="#DejaVuSans-97"/>
     <use x="1374.316406" xlink:href="#DejaVuSans-110"/>
     <use x="1437.695312" xlink:href="#DejaVuSans-117"/>
     <use x="1501.074219" xlink:href="#DejaVuSans-114"/>
     <use x="1539.9375" xlink:href="#DejaVuSans-101"/>
    </g>
   </g>
   <g id="patch_11">
    <path d="M 27.124687 251.105625 
L 67.124687 251.105625 
L 67.124687 237.105625 
L 27.124687 237.105625 
z
" style="stroke:#000000;stroke-linejoin:miter;"/>
   </g>
   <g id="text_8">
    <!-- Municipal waste (originally household waste) -->
    <defs>
     <path d="M 9.8125 72.90625 
L 24.515625 72.90625 
L 43.109375 23.296875 
L 61.8125 72.90625 
L 76.515625 72.90625 
L 76.515625 0 
L 66.890625 0 
L 66.890625 64.015625 
L 48.09375 14.015625 
L 38.1875 14.015625 
L 19.390625 64.015625 
L 19.390625 0 
L 9.8125 0 
z
" id="DejaVuSans-77"/>
     <path d="M 31 75.875 
Q 24.46875 64.65625 21.28125 53.65625 
Q 18.109375 42.671875 18.109375 31.390625 
Q 18.109375 20.125 21.3125 9.0625 
Q 24.515625 -2 31 -13.1875 
L 23.1875 -13.1875 
Q 15.875 -1.703125 12.234375 9.375 
Q 8.59375 20.453125 8.59375 31.390625 
Q 8.59375 42.28125 12.203125 53.3125 
Q 15.828125 64.359375 23.1875 75.875 
z
" id="DejaVuSans-40"/>
     <path d="M 32.171875 -5.078125 
Q 28.375 -14.84375 24.75 -17.8125 
Q 21.140625 -20.796875 15.09375 -20.796875 
L 7.90625 -20.796875 
L 7.90625 -13.28125 
L 13.1875 -13.28125 
Q 16.890625 -13.28125 18.9375 -11.515625 
Q 21 -9.765625 23.484375 -3.21875 
L 25.09375 0.875 
L 2.984375 54.6875 
L 12.5 54.6875 
L 29.59375 11.921875 
L 46.6875 54.6875 
L 56.203125 54.6875 
z
" id="DejaVuSans-121"/>
     <path d="M 54.890625 33.015625 
L 54.890625 0 
L 45.90625 0 
L 45.90625 32.71875 
Q 45.90625 40.484375 42.875 44.328125 
Q 39.84375 48.1875 33.796875 48.1875 
Q 26.515625 48.1875 22.3125 43.546875 
Q 18.109375 38.921875 18.109375 30.90625 
L 18.109375 0 
L 9.078125 0 
L 9.078125 75.984375 
L 18.109375 75.984375 
L 18.109375 46.1875 
Q 21.34375 51.125 25.703125 53.5625 
Q 30.078125 56 35.796875 56 
Q 45.21875 56 50.046875 50.171875 
Q 54.890625 44.34375 54.890625 33.015625 
z
" id="DejaVuSans-104"/>
     <path d="M 8.015625 75.875 
L 15.828125 75.875 
Q 23.140625 64.359375 26.78125 53.3125 
Q 30.421875 42.28125 30.421875 31.390625 
Q 30.421875 20.453125 26.78125 9.375 
Q 23.140625 -1.703125 15.828125 -13.1875 
L 8.015625 -13.1875 
Q 14.5 -2 17.703125 9.0625 
Q 20.90625 20.125 20.90625 31.390625 
Q 20.90625 42.671875 17.703125 53.65625 
Q 14.5 64.65625 8.015625 75.875 
z
" id="DejaVuSans-41"/>
    </defs>
    <g transform="translate(83.124687 251.105625)scale(0.2 -0.2)">
     <use xlink:href="#DejaVuSans-77"/>
     <use x="86.279297" xlink:href="#DejaVuSans-117"/>
     <use x="149.658203" xlink:href="#DejaVuSans-110"/>
     <use x="213.037109" xlink:href="#DejaVuSans-105"/>
     <use x="240.820312" xlink:href="#DejaVuSans-99"/>
     <use x="295.800781" xlink:href="#DejaVuSans-105"/>
     <use x="323.583984" xlink:href="#DejaVuSans-112"/>
     <use x="387.060547" xlink:href="#DejaVuSans-97"/>
     <use x="448.339844" xlink:href="#DejaVuSans-108"/>
     <use x="476.123047" xlink:href="#DejaVuSans-32"/>
     <use x="507.910156" xlink:href="#DejaVuSans-119"/>
     <use x="589.697266" xlink:href="#DejaVuSans-97"/>
     <use x="650.976562" xlink:href="#DejaVuSans-115"/>
     <use x="703.076172" xlink:href="#DejaVuSans-116"/>
     <use x="742.285156" xlink:href="#DejaVuSans-101"/>
     <use x="803.808594" xlink:href="#DejaVuSans-32"/>
     <use x="835.595703" xlink:href="#DejaVuSans-40"/>
     <use x="874.609375" xlink:href="#DejaVuSans-111"/>
     <use x="935.791016" xlink:href="#DejaVuSans-114"/>
     <use x="976.904297" xlink:href="#DejaVuSans-105"/>
     <use x="1004.6875" xlink:href="#DejaVuSans-103"/>
     <use x="1068.164062" xlink:href="#DejaVuSans-105"/>
     <use x="1095.947266" xlink:href="#DejaVuSans-110"/>
     <use x="1159.326172" xlink:href="#DejaVuSans-97"/>
     <use x="1220.605469" xlink:href="#DejaVuSans-108"/>
     <use x="1248.388672" xlink:href="#DejaVuSans-108"/>
     <use x="1276.171875" xlink:href="#DejaVuSans-121"/>
     <use x="1335.351562" xlink:href="#DejaVuSans-32"/>
     <use x="1367.138672" xlink:href="#DejaVuSans-104"/>
     <use x="1430.517578" xlink:href="#DejaVuSans-111"/>
     <use x="1491.699219" xlink:href="#DejaVuSans-117"/>
     <use x="1555.078125" xlink:href="#DejaVuSans-115"/>
     <use x="1607.177734" xlink:href="#DejaVuSans-101"/>
     <use x="1668.701172" xlink:href="#DejaVuSans-104"/>
     <use x="1732.080078" xlink:href="#DejaVuSans-111"/>
     <use x="1793.261719" xlink:href="#DejaVuSans-108"/>
     <use x="1821.044922" xlink:href="#DejaVuSans-100"/>
     <use x="1884.521484" xlink:href="#DejaVuSans-32"/>
     <use x="1916.308594" xlink:href="#DejaVuSans-119"/>
     <use x="1998.095703" xlink:href="#DejaVuSans-97"/>
     <use x="2059.375" xlink:href="#DejaVuSans-115"/>
     <use x="2111.474609" xlink:href="#DejaVuSans-116"/>
     <use x="2150.683594" xlink:href="#DejaVuSans-101"/>
     <use x="2212.207031" xlink:href="#DejaVuSans-41"/>
    </g>
   </g>
  </g>
 </g>
</svg>
